<svg id="Capa_1" data-name="Capa 1" xmlns="http://www.w3.org/2000/svg" viewBox="0 0 1762.72 1694.03"><defs><style>.cls-1{fill:none;stroke:#000;stroke-miterlimit:10;stroke-width:60px;}</style></defs><path d="M1319.14,470.27c-6.7-51.69-31.2-91.65-78.79-115.18-52.56-26-104.25-24.39-153.44,8.64-26.9,18.07-41.92,43.85-45.05,76.52-4.08,42.54,22.57,78.61,64.57,86.19,9.55,1.72,19.29,2.17,28.48-2,5.35-2.43,7.93-7.07,7.29-11.92a13,13,0,0,0-11.19-11c-1.32-.18-2.68,0-4-.14a54.52,54.52,0,0,1-48.31-53.55c-.1-13,3.51-25,8.53-36.68,15.46-36,51.82-53.22,89.56-42.26,27.85,8.09,46.12,27,58,52.65,9.08,19.65,12.22,40.6,13,62.12,1.91,51.68-15.1,96-50.62,133.44a256.72,256.72,0,0,1-111.53,69.41c-20.2,6.28-40.86,9.31-62.11,6.95-24.12-2.68-41-14.3-48.7-38a190.76,190.76,0,0,1-8-35c-4.87-38.66-9.59-77.33-14.43-116q-10.55-84.26-21.16-168.5-10.93-87.23-21.81-174.45c-1.15-9.17-1.25-9.19-10.85-9.2-32,0-64,.24-96-.19-7.3-.1-11.19,2.48-14.94,8.49Q696,307.6,603.84,454.42c-7.35,11.74-7.34,11.74-20.11,8.39C565.31,458,559.2,449.93,559,430.74c-.11-12.11,2.49-23.83,4.87-35.56Q595.4,239.57,627.09,84c5.19-25.42,9.35-51.1,17.06-75.95,6.91-22.27,19.85-31.81,43.29-32.72,7-.27,13.95-1,20.9-1.76s11.65-4.69,14-11.2a150.4,150.4,0,0,0,6.46-24c-3.5-1.41-6.85-.78-10.12-.78-58.33-.05-116.66.13-175-.23-7.92,0-12.46,2.55-17,8.87Q398.21,127.08,269.25,307.58c-2.4,3.35-4.34,7.18-7.65,9.69-2.57-1.64-2.17-3.85-2.54-5.72-3.53-18-7-35.95-10.5-53.91Q218,102.36,187.43-52.91c-1.87-9.47-1.84-9.49-12-9.49-51.33,0-102.66-.16-154,0-44.08.17-86.86-6.83-128.26-22a250.14,250.14,0,0,1-53.41-26.81C-210.42-144.73-236-192.07-238.83-252c-1.19-24.82.72-49.3,9.83-72.73,9.94-25.54,26.06-45.57,51.84-56.56,34.11-14.53,72.92-3.5,91.88,26.27a98,98,0,0,1,15.41,47c1.74,27.7-20.08,53.2-47.69,56a58.64,58.64,0,0,0-6,.44,12.19,12.19,0,0,0-9.67,10.19c-.84,5.33,1.26,9.66,6.4,12.36a28.9,28.9,0,0,0,11.52,2.93A76.34,76.34,0,0,0-33-300.21c1-35.43-12.35-64.41-40.57-85.87-35.49-27-75.77-35.81-119-26-58.27,13.29-98,47.73-113.5,106.87-8.25,31.54-7.82,63.46.35,94.93,21.17,81.48,73.21,134.85,151.42,163.62,35.4,13,72.49,16.72,109.89,18.45,16.61.77,33.35,1,49.62,5.05,22.06,5.49,30.18,17.79,27,40.38a173.19,173.19,0,0,1-7.47,30q-54,163.47-108,327c-6.06,18.31-11.88,36.72-19.89,54.34-6.67,14.66-17.59,24.82-32.39,31a93.19,93.19,0,0,1-21,6.07c-6.89,1.09-13.78,2.19-20.65,3.41-5.83,1-9.56,4.67-11.15,10.21-2.27,7.89-4.21,15.87-6.56,24.85h182.7c21.69,0,21.69,0,25.44-21.36,2-11.37-.17-14.32-12.12-15a114.77,114.77,0,0,1-21.74-3c-19.06-4.82-27.2-16-26.15-35.62a70.63,70.63,0,0,1,1.29-8.88c3-16.45,9-32,14.24-47.78Q19.05,219.23,69.38,66.1c.85-2.57,1.06-5.68,3.17-7.6,2.25.68,2,2.22,2.27,3.42q11.82,59.74,23.56,119.52,25.46,129.32,50.91,258.65c3.8,19.26,7.71,38.5,11.52,57.76.58,2.92.42,6,4.77,6.21,10.73.51,21.66,1.79,26.61-11.25Q348.42,273.45,504.64,54.11c1.54-2.16,2.52-5.06,6-6.06-.2,1.56-.27,2.55-.46,3.51q-32.64,164-65.33,328.05c-3.65,18.28-7.72,36.47-15.71,53.51-8.53,18.15-22.09,29.49-42.27,32.77A229.46,229.46,0,0,1,350,469c-6.52,0-11.86,2.07-14.87,8.13-4.1,8.26-6.4,17.06-7.91,27.09H570.33c1.31,3.51-.91,5.14-2,6.94q-34.14,54.64-68.48,109.16a213.94,213.94,0,0,1-30.51,38.17c-19.6,19.39-43,30.84-70.23,35.09-21.13,3.3-42.46,3.8-63.71,5.4-51,3.84-98.21,19.23-139.44,49.3-70,51-104.3,119.86-94.71,207.19,5.8,52.81,33.49,92.05,82.24,114.66,50.15,23.27,99.63,21.78,146.5-8.72,33.72-21.94,49.73-53.85,47.16-94.28s-34.95-71-77-71.56c-6-.09-12.08.74-17.3,4-7.52,4.77-7.49,14.91-.31,20.19,2.71,2,5.69,1.41,8.61,1.82,26.86,3.77,54.75,25.6,48.76,63.5a120.94,120.94,0,0,1-7.43,25.84c-18.32,46.17-67.51,56.05-102.76,38.67-26.22-12.93-41.56-34.71-50.32-61.68-8.39-25.81-9-52.35-6.23-79.1,4.2-40.48,19.54-75.76,48.67-104.68,22.4-22.23,49.08-37.59,78.36-48.57C341.77,740,385,733.11,429.34,733c56.66-.11,113.32,0,170,0,2.66,0,5.33,0,8,0,1.71,0,3.36-.23,3.9-2.25,2.23-8.34,5.33-16.53,5.77-25.23.27-5.43-2-7.6-7.94-8-5.65-.35-11.33,0-17-.32-13-.61-26-1.47-38.43-5.55-14.72-4.8-18.8-12.29-15.2-27.44,3.28-13.85,10.57-25.8,18-37.66,19.94-31.91,40.16-63.64,59.82-95.72,3.8-6.21,7.87-8.28,15.07-8.25,59.66.32,119.33.18,179,.18,1.67,0,3.35.13,5,0,4.28-.43,5.5,1.57,6.05,5.69,3.74,28.05,7.85,56.06,11.72,84.09,1.55,11.21,3.84,22.34,3.75,33.73-.21,27.73-14.24,44.21-41.33,49.17-10.58,2-21.2,2-31.86,2.05-6,0-12,0-17.88,1.46-3.88,1-7,2.94-8.14,6.63-2.68,8.83-5.93,17.56-7.36,27.46H742q132.49,0,265,0c22.68,0,45.29-.73,67.8-3.68,46.34-6.06,90.49-19.1,131.17-42.43C1291.68,637.73,1329,546.38,1319.14,470.27Zm-510,1.94c-1.33,0-2.66,0-4,0q-72.45,0-144.9,0c-1.62,0-3.31.27-5.71-1.72l130.92-208.8,1.67.52q2.92,23.1,5.85,46.21,9.66,77.27,19.3,154.54c.21,1.65.39,3.3.63,4.95C813.33,470.88,812.16,472.33,809.13,472.21Z" transform="translate(389.92 557.98)"/><rect class="cls-1" x="30" y="30" width="1702.72" height="1634.03" rx="332.7"/></svg>